<svg viewBox="-12 0 511 511.998" xmlns="http://www.w3.org/2000/svg"><path d="m76.5625 316.101562c-3.34375 3.050782-6.65625 6.203126-9.925781 9.472657-94.628907 94.628906-46.308594 169.78125-46.308594 169.78125s.671875-48.230469 71.207031-118.765625c7.777344-7.777344 15.765625-15 23.867188-21.648438zm0 0" fill="#dfe0e0"/><path d="m20.328125 495.316406c.039063-1.53125 1.816406-49.335937 71.207031-118.726562 7.777344-7.777344 15.765625-15 23.867188-21.648438l-18.195313-18.191406-24.90625 27.171875c-32.917969 35.902344-51.425781 82.691406-51.972656 131.394531zm0 0" fill="#c9caca"/><path d="m64.65625 302.359375c6.21875-6.222656 16.308594-6.222656 22.53125 0l168.351562 168.355469c6.222657 6.21875 6.222657 16.308594 0 22.53125-6.222656 6.222656-16.308593 6.222656-22.53125 0l-168.351562-168.355469c-6.222656-6.222656-6.222656-16.308594 0-22.53125zm0 0" fill="#9b6a57"/><path d="m245.191406 481.058594-168.351562-168.351563c-4.355469-4.355469-10.605469-5.65625-16.097656-3.914062.746093-2.351563 2.046874-4.566407 3.914062-6.433594 6.21875-6.222656 16.308594-6.222656 22.53125 0l168.351562 168.355469c6.222657 6.21875 6.222657 16.308594 0 22.527344-1.863281 1.867187-4.078124 3.167968-6.433593 3.914062 1.746093-5.492188.445312-11.742188-3.914063-16.097656zm0 0" fill="#8b5f4e"/><path d="m339.160156 37.90625s48.011719-32.054688 90.453125-15.246094c42.445313 16.804688 66.699219 117.1875 37.730469 251.257813 0 0-113.535156-84.636719-128.183594-236.011719zm0 0" fill="#535860"/><path d="m402.082031 62.28125c-21.117187-36.386719-55.746093-55.722656-77.351562-43.1875-21.605469 12.539062-22 52.199219-.882813 88.585938 21.117188 36.390624 55.746094 55.726562 77.351563 43.1875 21.601562-12.535157 21.996093-52.195313.882812-88.585938zm0 0" fill="#933bc9"/><path d="m84.25 504.5c0-88.222656 71.519531-159.742188 159.742188-159.742188 88.222656 0 159.742187 71.519532 159.742187 159.742188zm0 0" fill="#f7c2ad"/><path d="m258.550781 345.425781c-4.796875-.433593-9.648437-.667969-14.558593-.667969-88.222657 0-159.746094 71.519532-159.746094 159.742188h29.121094c.003906-83.3125 63.785156-151.71875 145.183593-159.074219zm0 0" fill="#efb5a0"/><path d="m349.324219 504.5v-29.367188c0-4.621093-3.746094-8.367187-8.367188-8.367187-18.390625 0-33.300781-14.910156-33.300781-33.300781v-75.503906c-19.507812-8.488282-41.035156-13.203126-63.664062-13.203126-22.632813 0-44.160157 4.714844-63.667969 13.203126v75.503906c0 18.390625-14.90625 33.300781-33.296875 33.300781-4.621094 0-8.367188 3.746094-8.367188 8.367187v29.367188zm0 0" fill="#933bc9"/><path d="m180.324219 357.960938v16.777343c19.878906 7.234375 41.320312 11.191407 63.667969 11.191407 22.347656 0 43.789062-3.953126 63.664062-11.191407v-16.777343c-19.507812-8.488282-41.035156-13.203126-63.664062-13.203126-22.632813 0-44.160157 4.714844-63.667969 13.203126zm0 0" fill="#7411b1"/><path d="m441.53125 208.863281c0 18.789063-15.230469 34.019531-34.019531 34.019531-18.789063 0-34.019531-15.230468-34.019531-34.019531 0-18.789062 15.230468-34.019531 34.019531-34.019531 18.789062 0 34.019531 15.230469 34.019531 34.019531zm0 0" fill="#efb5a0"/><path d="m114.488281 208.863281c0 18.789063-15.230469 34.019531-34.015625 34.019531-18.789062 0-34.019531-15.230468-34.019531-34.019531 0-18.789062 15.230469-34.019531 34.019531-34.019531 18.785156 0 34.015625 15.230469 34.015625 34.019531zm0 0" fill="#eaaa96"/><path d="m415.609375 199.3125c0 94.78125-76.835937 171.617188-171.617187 171.617188s-171.617188-76.835938-171.617188-171.617188 76.835938-171.617188 171.617188-171.617188 171.617187 76.835938 171.617187 171.617188zm0 0" fill="#f7c2ad"/><path d="m102.375 199.3125c0-89.726562 68.863281-163.355469 156.617188-170.957031-4.945313-.425781-9.945313-.660157-15-.660157-94.78125 0-171.617188 76.835938-171.617188 171.617188s76.835938 171.617188 171.617188 171.617188c5.054687 0 10.054687-.234376 15-.660157-87.753907-7.601562-156.617188-81.234375-156.617188-170.957031zm0 0" fill="#efb5a0"/><path d="m328.492188 250.308594c-40.445313 0-68-29-84.5-29s-44.054688 29-84.5 29c-22.53125 0-55.035157 0-79.410157 0 21.714844 69.878906 86.886719 120.621094 163.910157 120.621094 77.023437 0 142.195312-50.742188 163.910156-120.621094-24.375 0-56.878906 0-79.410156 0zm0 0" fill="#933bc9"/><path d="m110.078125 250.308594c-10.507813 0-20.828125 0-30 0 21.71875 69.878906 86.890625 120.621094 163.914063 120.621094 5.066406 0 10.082031-.226563 15.039062-.65625-70.402344-6.082032-128.65625-54.660157-148.953125-119.964844zm0 0" fill="#7411b1"/><path d="m243.992188 7.5c-102.683594 0-186.519532 80.6875-191.570313 182.117188 0 0 24.566406.382812 62.070313-47.117188l13.714843 23.363281c.820313 1.40625 2.167969 2.421875 3.742188 2.835938 73.457031 19.246093 150.628906 19.246093 224.085937 0 1.574219-.414063 2.917969-1.429688 3.742188-2.835938l13.714844-23.363281c37.5 47.5 62.070312 47.117188 62.070312 47.117188-5.050781-101.429688-88.886719-182.117188-191.570312-182.117188zm0 0" fill="#5c626b"/><path d="m258.992188 8.085938c-4.949219-.382813-9.953126-.585938-15-.585938-102.683594 0-186.519532 80.6875-191.570313 182.117188 0 0 11.75.179687 31.402344-15.417969 11.664062-89.191407 84.589843-159.105469 175.167969-166.113281zm0 0" fill="#535860"/><path d="m482.644531 103.011719c-8.238281-46.738281-26.089843-77.753907-50.269531-87.328125-18.527344-7.335938-40.730469-7.117188-64.355469.5625-.253906-.144532-.507812-.300782-.761719-.445313-17.011718-9.5-33.445312-10.632812-46.277343-3.1875-.890625.515625-1.757813 1.097657-2.609375 1.699219-23.007813-9.234375-48.113282-14.3125-74.378906-14.3125-47.789063 0-94.007813 17.171875-130.140626 48.351562-3.136718 2.703126-3.484374 7.4375-.78125 10.578126 2.707032 3.132812 7.441407 3.480468 10.578126.777343 33.414062-28.828125 76.152343-44.707031 120.34375-44.707031 94.875 0 173.476562 71.539062 183.28125 164.695312-9.40625-3.96875-26.238282-14.414062-47.894532-41.84375-1.535156-1.941406-3.933594-3-6.402344-2.832031s-4.699218 1.546875-5.953124 3.683594l-13.429688 22.882813c-71.71875 18.691406-147.488281 18.691406-219.203125 0l-13.433594-22.882813c-1.253906-2.136719-3.480469-3.515625-5.953125-3.683594-2.46875-.167969-4.867187.890625-6.402344 2.832031-21.65625 27.433594-38.492187 37.878907-47.894531 41.847657 3.925781-37.484375 18.984375-72.210938 43.894531-100.980469 2.710938-3.128906 2.371094-7.867188-.757812-10.578125-3.132812-2.710937-7.871094-2.371094-10.582031.757813-28.9375 33.421874-45.574219 74.28125-48.207031 118.285156-.003907.007812-.007813.015625-.015626.023437-3.980468 6.507813-6.085937 13.992188-6.085937 21.652344 0 19.914063 13.976563 36.75 33.097656 40.667969.222657.761718.445313 1.519531.679688 2.277344.101562.503906.253906.984374.449219 1.445312 5.515624 17.425781 13.628906 33.699219 23.882812 48.378906l-4.574219-4.574218c-9.132812-9.136719-24-9.136719-33.136719 0-7.792968 7.792968-8.914062 19.742187-3.414062 28.761718-46.164062 48.605469-55.714844 92.113282-55.433594 120.421875.320313 32.28125 12.976563 52.335938 13.515625 53.171875 1.402344 2.1875 3.800781 3.445313 6.308594 3.445313.683594 0 1.378906-.09375 2.0625-.289063 3.179687-.910156 5.390625-3.796875 5.433594-7.105468.007812-.453126 1.414062-45.96875 69.011719-113.566407 2.324218-2.324219 4.746093-4.660156 7.226562-6.988281l16.617188 16.617188c-6.316407 6.894531-12.082032 14.328124-17.210938 22.257812-17.480469 27.023438-26.71875 58.394531-26.71875 90.714844 0 4.144531 3.355469 7.5 7.5 7.5h319.484375c4.140625 0 7.5-3.355469 7.5-7.5 0-60.652344-33.121094-116.46875-85.433594-145.871094 42.082031-21.699219 74.507813-59.585938 89-105.375.195313-.460938.347657-.941406.449219-1.445312.234375-.757813.460938-1.519532.683594-2.285157 3.765625-.765625 7.335937-2.023437 10.632812-3.710937 20.234375 22.058594 35.609375 33.613281 36.292969 34.121094 1.3125.976562 2.890625 1.484374 4.484375 1.484374.886719 0 1.777344-.15625 2.628906-.476562 2.390625-.894531 4.160156-2.945312 4.699219-5.4375 13.632813-63.070312 16.460937-124.328125 7.972656-172.488281zm-145.703125-80.105469c6.734375-.707031 14.625 1.3125 23.003906 5.992188 13.453126 7.507812 26.117188 20.707031 35.664063 37.15625 1.949219 3.363281 3.707031 6.773437 5.285156 10.195312-17.273437-21.996094-39.0625-40.226562-63.953125-53.34375zm-282.988281 185.957031c0-4.289062 1.027344-8.484375 2.988281-12.25 2.066406-.398437 4.757813-1.117187 8.011719-2.378906-.046875 1.695313-.078125 3.386719-.078125 5.078125 0 11.25 1.054688 22.253906 3.046875 32.933594-8.378906-4.488282-13.96875-13.320313-13.96875-23.382813zm287.003906 265.402344c.480469 0 .867188.386719.867188.867187v21.867188h-195.664063v-21.867188c0-.480468.386719-.867187.867188-.867187 22.496094 0 40.796875-18.304687 40.796875-40.800781v-64.066406c17.675781 5.851562 36.558593 9.03125 56.167969 9.03125 19.609374 0 38.492187-3.179688 56.164062-9.03125v64.066406c0 22.496094 18.304688 40.800781 40.800781 40.800781zm-183.914062-112.65625-15.367188-15.371094c6.523438 4.5625 13.363281 8.703125 20.484375 12.375-1.726562.96875-3.429687 1.96875-5.117187 2.996094zm-87.085938-53.945313c3.289063-3.289062 8.640625-3.289062 11.925781 0l62.496094 62.496094c-4.539062 3.367188-8.902344 6.964844-13.074218 10.773438l-60.023438-60.023438-1.324219-1.320312c-3.285156-3.289063-3.285156-8.640625 0-11.925782zm16.273438 63.625c-42.234375 42.230469-60.167969 76.914063-67.78125 98.761719-1.617188-6.648437-2.855469-14.707031-2.945313-23.960937-.355468-36.011719 17.113282-73.625 50.585938-109.160156l27.363281 27.367187c-2.476563 2.328125-4.894531 4.664063-7.222656 6.992187zm86.59375-1.386718v63.5625c0 14.226562-11.574219 25.800781-25.796875 25.800781-8.75 0-15.867188 7.117187-15.867188 15.867187v21.867188h-39.222656c2.664062-53.386719 33.625-102.03125 80.886719-127.097656zm223.226562 127.097656h-39.226562v-21.867188c0-8.75-7.117188-15.867187-15.867188-15.867187-14.226562 0-25.800781-11.574219-25.800781-25.800781v-63.566406c47.328125 25.078124 78.242188 73.558593 80.894531 127.101562zm-152.058593-133.570312c-69.894532 0-129.714844-43.929688-153.332032-105.621094h68.832032c26.585937 0 48.003906-11.632813 63.640624-20.128906 8.398438-4.5625 16.332032-8.871094 20.859376-8.871094 4.527343 0 12.460937 4.308594 20.859374 8.871094 15.636719 8.496093 37.054688 20.128906 63.640626 20.128906h19.738281c4.144531 0 7.5-3.359375 7.5-7.5 0-4.144532-3.355469-7.5-7.5-7.5h-19.738281c-22.777344 0-41.464844-10.152344-56.480469-18.308594-10.996094-5.972656-19.683594-10.691406-28.019531-10.691406-8.335938 0-17.023438 4.71875-28.019532 10.691406-15.015625 8.15625-33.703125 18.308594-56.480468 18.308594h-73.753907c-3.8125-13.859375-5.863281-28.441406-5.863281-43.496094 0-4.4375.1875-8.898438.539062-13.3125 9.21875-6.144531 20.382813-15.671875 33.046876-30.4375l8.277343 14.097656c1.839844 3.140625 4.792969 5.371094 8.308594 6.292969 74.542969 19.53125 153.347656 19.53125 227.886719 0 3.519531-.921875 6.46875-3.15625 8.3125-6.292969l8.277344-14.097656c12.664062 14.765625 23.824218 24.285156 33.046874 30.429688.351563 4.417968.539063 8.882812.539063 13.320312 0 15.054688-2.050781 29.636719-5.863281 43.496094h-26.015625c-4.140625 0-7.5 3.355468-7.5 7.5 0 4.140625 3.359375 7.5 7.5 7.5h21.09375c-23.617188 61.691406-83.4375 105.621094-153.332031 105.621094zm179.039062-169.207032c3.242188 1.257813 5.921875 1.976563 7.984375 2.378906 1.96875 3.769532 3.015625 7.953126 3.015625 12.261719 0 10.128907-5.578125 18.9375-13.972656 23.402344 1.996094-10.6875 3.050781-21.699219 3.050781-32.953125-.003906-1.695312-.03125-3.390625-.078125-5.089844zm39.480469 65.9375c-5.988281-5.265625-14.429688-13.167968-24.023438-23.546875 6.585938-7.359375 10.542969-17.085937 10.542969-27.75 0-7.679687-2.121094-15.121093-6.105469-21.628906-1.515625-25.378906-7.726562-49.414063-17.773437-71.273437.265625-18.160157-5.613282-38.550782-16.570313-57.433594-7.003906-12.066406-15.585937-22.640625-25.011719-31.003906 13.089844-2.859376 28.664063-3.679688 43.285157 2.105468 18.871093 7.476563 33.824219 35.171875 41.015625 75.984375 7.617187 43.21875 5.691406 97.6875-5.359375 154.546875zm0 0"/><path d="m305.816406 205.066406c-4.144531 0-7.5 3.359375-7.5 7.5v11.023438c0 4.140625 3.355469 7.5 7.5 7.5 4.140625 0 7.5-3.359375 7.5-7.5v-11.023438c0-4.140625-3.359375-7.5-7.5-7.5zm0 0"/><path d="m182.167969 205.066406c-4.140625 0-7.5 3.359375-7.5 7.5v11.023438c0 4.140625 3.359375 7.5 7.5 7.5s7.5-3.359375 7.5-7.5v-11.023438c0-4.140625-3.355469-7.5-7.5-7.5zm0 0"/></svg>
