<?xml version="1.0" encoding="utf-8"?>
<!-- Generator: Adobe Illustrator 22.1.0, SVG Export Plug-In . SVG Version: 6.00 Build 0)  -->
<svg version="1.1" id="Artwork" xmlns="http://www.w3.org/2000/svg" xmlns:xlink="http://www.w3.org/1999/xlink" x="0px" y="0px"
	 viewBox="0 0 291.2 100.8" style="enable-background:new 0 0 291.2 100.8;" xml:space="preserve">
<style type="text/css">
	.st0{fill:#FFFFFF;}
</style>
<g>
	<path class="st0" d="M121.6,34.4h-5.5v-0.7h1.9v-11h-3.8v1.5h-0.9v-3h0.9v0.5h9.4v-0.5h0.9v3h-0.9v-1.5h-3.8v11h1.9
		C121.6,33.7,121.6,34.4,121.6,34.4z"/>
	<path class="st0" d="M139,34.4h-4.6v-0.7h1.4v-5.3h-7.2v5.3h1.4v0.7h-4.6v-0.7h1.4V22.5h-1.4v-0.7h4.6v0.7h-1.4v5.1h7.2v-5.1h-1.4
		v-0.7h4.6v0.7h-1.5v11.2h1.5V34.4z"/>
	<path class="st0" d="M149.4,34.4h-8.7v-0.7h1.4V22.5h-1.4v-0.7h7.6v-0.5h0.9v3h-0.9v-1.6h-4.5v4.9h3.6v-1.4l0.9,0v3.8l-0.9,0v-1.5
		h-3.6v5.1h4.7v-1.7h0.9L149.4,34.4L149.4,34.4z"/>
	<path class="st0" d="M168.3,22.5h-1.4v7.3c0,2-0.7,3.4-2.3,4.2c-0.8,0.4-1.7,0.7-2.7,0.7c-2.8,0-4.8-1.8-4.8-4.4v-7.8h-1.4v-0.7
		h4.6v0.7h-1.4v7.2c0,2.3,1.4,3.8,3.5,3.8c2.2,0,3.7-1.6,3.7-3.9v-7.2h-1.4v-0.7h3.9L168.3,22.5L168.3,22.5z"/>
	<path class="st0" d="M180.1,34.6h-0.6l-7.4-10.1v9.2h1.5v0.7h-3.9v-0.7h1.5V23.2l-0.5-0.7h-1.3v-0.7h2.8l7,9.6v-8.9h-1.5v-0.7h3.9
		v0.7h-1.4L180.1,34.6L180.1,34.6z"/>
	<path class="st0" d="M187.5,34.4h-4.6v-0.7h1.4V22.5h-1.4v-0.7h4.6v0.7h-1.4v11.2h1.4V34.4z"/>
	<path class="st0" d="M195.2,34.7h-0.6l-4.8-12.3h-1.1v-0.7h4.8v0.7h-1.8l3.7,9.4l3.7-9.4h-1.3v-0.7h3.3v0.7h-1L195.2,34.7
		L195.2,34.7z"/>
	<path class="st0" d="M210.9,34.4h-8.7v-0.7h1.4V22.5h-1.4v-0.7h7.6v-0.5h0.9v3h-0.9v-1.6h-4.5v4.9h3.6v-1.4l0.9,0v3.8l-0.9,0v-1.5
		h-3.6v5.1h4.7v-1.7h0.9L210.9,34.4L210.9,34.4z"/>
	<path class="st0" d="M223.8,34.4h-1.6c-1.1,0-1.3-0.1-2-1.1l-2.9-4.5h-1.5v5h1.4v0.7h-4.6v-0.7h1.4V22.5h-1.4v-0.7h5.3
		c1.9,0,2.9,0.5,3.5,1.7c0.2,0.5,0.4,1.1,0.4,1.7c0,1.9-1,3-2.9,3.3l2.8,4.3c0.5,0.7,0.8,0.9,1.2,0.9h0.7V34.4z M215.8,27.8h1.8
		c1.5,0,2.5-1.1,2.5-2.6c0-1.6-0.9-2.6-2.5-2.6h-1.8C215.8,22.6,215.8,27.8,215.8,27.8z"/>
	<path class="st0" d="M226.2,34.6h-0.9v-3.4h0.9v1.5c1.2,0.8,1.7,1,2.5,1c1.5,0,2.6-0.8,2.6-2c0-1.1-0.7-1.9-2.8-3
		c-2.4-1.3-3.2-2.2-3.2-3.8c0-1.9,1.6-3.3,3.8-3.3c1,0,1.7,0.2,2.3,0.5v-0.7h0.9v3.3h-0.9v-1.4c-1-0.7-1.5-0.8-2.2-0.8
		c-1.3,0-2.1,0.8-2.1,2c0,1,0.6,1.5,3,2.9c2.4,1.4,3.1,2.2,3.1,3.8c0,2-1.6,3.5-3.8,3.5c-1.2,0-2-0.2-3-0.9L226.2,34.6L226.2,34.6z"
		/>
	<path class="st0" d="M239.3,34.4h-4.6v-0.7h1.4V22.5h-1.4v-0.7h4.6v0.7h-1.4v11.2h1.4V34.4z"/>
	<path class="st0" d="M248.9,34.4h-5.5v-0.7h1.9v-11h-3.8v1.5h-0.9v-3h0.9v0.5h9.4v-0.5h0.9v3h-0.9v-1.5H247v11h1.9L248.9,34.4
		L248.9,34.4z"/>
	<path class="st0" d="M261,34.4h-4.6v-0.7h1.4v-5.1l-4-6.1h-1.1v-0.7h4.7v0.7h-1.7l3.3,5l3-5h-1.7v-0.7h3.8v0.7h-1l-3.7,6v5.2h1.5
		V34.4z"/>
	<path class="st0" d="M269.2,28.1c0-3.6,2.8-6.6,6.2-6.6c3.3,0,6.1,3,6.1,6.6c0,3.6-2.8,6.6-6.1,6.6C272,34.6,269.2,31.7,269.2,28.1
		z M271.1,28.1c0,3.2,1.8,5.6,4.3,5.6c2.5,0,4.2-2.4,4.2-5.6s-1.8-5.6-4.2-5.6C272.9,22.5,271.1,24.8,271.1,28.1L271.1,28.1z"/>
	<path class="st0" d="M287.3,34.4h-4.6v-0.7h1.4V22.5h-1.4v-0.7h7.6v-0.5h0.9v3h-0.9v-1.6h-4.5v4.9h3.6v-1.4l0.9,0v3.8l-0.9,0v-1.5
		h-3.6v5.3h1.4L287.3,34.4L287.3,34.4z"/>
</g>
<g>
	<path class="st0" d="M115.7,75.3h-2.4v-9.1h2.4v4c3.1,2.1,4.4,2.6,6.7,2.6c4,0,6.8-2.1,6.8-5.3c0-2.9-2-5-7.4-7.8
		c-6.4-3.3-8.5-5.9-8.5-10c0-5,4.2-8.7,9.9-8.7c2.5,0,4.4,0.5,6,1.4v-1.8h2.3v8.6h-2.3v-3.6c-2.6-1.7-3.8-2.2-5.9-2.2
		c-3.4,0-5.7,2.1-5.7,5.2c0,2.6,1.5,4.1,7.8,7.7c6.3,3.6,8.1,5.9,8.1,10c0,5.3-4.3,9.3-10.1,9.3c-3.2,0-5.3-0.7-7.8-2.3L115.7,75.3
		L115.7,75.3z"/>
	<path class="st0" d="M156,74.9h-12V73h3.8V59.5l-10.5-16.1h-2.9v-1.9h12.5v1.9h-4.6l8.7,13.3l8-13.3h-4.6v-1.9h10.1v1.9h-2.6
		l-9.7,15.8V73h3.8L156,74.9L156,74.9z"/>
	<path class="st0" d="M167,74.9V73h3.8V43.4H167v-1.9h14.9c9.1,0,16.5,7.5,16.5,16.6c0,9.3-7.3,16.7-16.6,16.7H167L167,74.9z
		 M175.2,72.4h6.1c6.9,0,12.2-6.1,12.1-14.1c0-7.8-5.4-14.1-12-14.1h-6.2V72.4z"/>
	<path class="st0" d="M227.6,75.4H226l-19.4-26.7V73h3.8v1.9h-10.2V73h3.8V45.3l-1.4-1.9h-3.5v-1.9h7.3L225,66.9V43.4h-3.8v-1.9
		h10.2v1.9h-3.8V75.4z"/>
	<path class="st0" d="M257.8,74.9h-23V73h3.8V43.4h-3.8v-1.9h20.2v-1.4h2.3v8H255v-4.3h-12v13h9.5V53l2.3-0.1v10l-2.3,0.1v-3.9H243
		v13.5h12.4v-4.4h2.3C257.8,68.2,257.8,74.9,257.8,74.9z"/>
	<path class="st0" d="M282.7,74.9h-12V73h3.8V59.5l-10.5-16.1h-2.9v-1.9h12.5v1.9H269l8.7,13.3l8-13.3h-4.6v-1.9h10.1v1.9h-2.6
		l-9.7,15.8V73h3.8L282.7,74.9L282.7,74.9z"/>
</g>
<path class="st0" d="M49.9,65.5h7.5v-1.1h-7.5V65.5z M49.9,68.6h7.5v-1.1h-7.5V68.6z M49.9,62.4h7.5v-1.1h-7.5V62.4z M44.6,64.4
	h-7.5v1.1h7.5C44.6,65.5,44.6,64.4,44.6,64.4z M44.6,67.5h-7.5v1.1h7.5C44.6,68.6,44.6,67.5,44.6,67.5z M44.6,61.3h-7.5v1.1h7.5
	C44.6,62.4,44.6,61.3,44.6,61.3z M56.4,41.5c-3-0.2-6.1-0.2-9.2-0.2c-3,0-6.1,0.1-9.1,0.2v15.1H9.3c1.2,7.2,4.1,14,8.4,19.6
	c0.6-0.8,1.5-1.3,2.6-1.3h17.9v15.7c2.9,0.8,6,1.2,9.1,1.2v0.1h0v-0.1c3.2,0,6.2-0.4,9.1-1.2V74.9h17.9c1.1,0,2,0.5,2.6,1.3
	c4.2-5.6,7.2-12.4,8.4-19.6H56.4V41.5z M42,46.2l3.9,1.8l1.4-4l1.4,4.1l3.8-1.9l-1.9,3.9l4,1.4l-4.1,1.4l1.9,3.8l-3.9-1.8l-1.4,4
	l-1.5-4.1L42,56.8l1.8-3.9l-4-1.4l4.1-1.4C43.8,50,42,46.2,42,46.2z M28.4,71.1l-3.8-1.9l-1.4,4.1l-1.4-4l-3.9,1.8l1.9-3.8l-4.1-1.4
	l4-1.4l-1.9-3.9l3.8,1.9l1.4-4.1l1.4,4l3.9-1.8l-1.9,3.8l4.1,1.5l-4,1.4L28.4,71.1z M34.5,70.8h-1.7v-1.2h1.7V70.8z M34.5,67.5h-1.7
	v-1.2h1.7V67.5z M34.5,64.2h-1.7v-1.2h1.7V64.2z M34.5,60.8h-1.7v-1.2h1.7V60.8z M35.4,70.8v-12H43c0.1,0,0.3,0,0.5,0
	c1.7,0,3,1.3,3,3v10c-0.6-0.7-1.4-1.1-2.3-1.1C44,70.8,37.8,70.8,35.4,70.8z M52.5,86.4l-3.9-1.8l-1.4,4l-1.5-4.1L42,86.4l1.9-3.9
	l-4-1.4l4.1-1.5L42,75.8l3.9,1.8l1.4-4l1.5,4.1l3.8-1.9l-1.8,3.9l4,1.4l-4.1,1.5C50.7,82.6,52.5,86.4,52.5,86.4z M66.1,60.5l3.9,1.8
	l1.4-4l1.5,4.1l3.8-1.9l-1.9,3.9l4,1.4l-4.1,1.4l1.9,3.8l-3.9-1.8l-1.4,4L70,69.2l-3.8,1.9l1.9-3.9l-4-1.4l4.1-1.5
	C68,64.3,66.1,60.5,66.1,60.5z M60,59.6h1.7v1.2H60V59.6z M60,62.9h1.7v1.2H60C60,64.2,60,62.9,60,62.9z M60,66.2h1.7v1.2H60V66.2z
	 M60,69.6h1.7v1.2H60V69.6z M59.1,58.8v12c-2.4,0-8.6,0-8.7,0c-0.9,0-1.8,0.4-2.3,1.1v-10c0-1.7,1.3-3,3-3c0.1,0,0.3,0,0.5,0
	C51.5,58.8,59.1,58.8,59.1,58.8z M73.9,7.8c-7.4-1.6-17.2-3.1-26.7-3.1c-14.2,0-29.1,3.5-35.7,5.3c-1.3,0.3-2.3,0.6-2.9,0.8V43
	c4.3-0.7,21.9-3.4,38.6-3.4c16.7,0,34.3,2.7,38.6,3.4V10.7c-0.6-0.2-1.5-0.4-2.9-0.8C80.8,9.4,77.6,8.6,73.9,7.8z M33.7,11.2
	c0.6-0.1-0.7-1.1,0.1-1.1c0.5,0,2.3,0,3.6,0.7c0.3,0.1,0.4-0.4,0.9-0.7c0,0,0.2-0.1,0.3,0c0.5,0.3,0.7,0.8,1,0.7
	c1.3-0.6,3.1-0.6,3.6-0.7c0.9-0.1-0.4,0.9,0.1,1.1c3,0.7,5.2,3.2,5.2,6.3c0,0.9-0.2,1.7-0.5,2.5c-0.2,0.4-0.6-0.8-0.8-0.1
	C47,21.1,46.7,22,46,23.3c-0.6,1.2-1.7-1.3-2-0.6c-0.6,1.2-1.9,1.6-2.9,1.8c-0.1,0-0.2,0-0.1-0.1c0,0,0.3-0.3,0.3-0.7
	c0,0,0-0.1,0.1-0.2c0.7-0.3,1.3-1,1.4-1.8c0.2-0.7,0.5-1.8,0.9-2.5c0.8-1.4-0.2-3.2,0.1-3.6c0.6-0.4,0.9-1,0.9-1.7
	c0-1.1-0.9-2.1-2.1-2.1c-0.6,0-1.2,0.3-1.5,0.7l-0.1,0.1c-0.2,0.2-0.4,0.4-0.5,0.6c-0.2,0.2-0.1,0.7,0.2,0.8
	c1.4,0.4,2.3,3.5,1.7,4.5c-0.3,0.5-1,2.2-1,2.6c0,0.6-0.5,1.1-1.1,1.1c-0.5,0-0.9-0.3-1.1-0.7c0,0,0,0,0,0c0.4-0.2,1.2-0.8,1.2-1.3
	l-0.2-1.7c0.7-0.1,1-0.5,1.1-1.1c0.1,0,0.1-0.1,0.2-0.1c0.2-0.2,0.4-0.8-0.1-0.7c-0.7,0.1-1.5,0.1-2.3,0.3c-0.1,0-0.2,0.1-0.2,0.2
	c0,0.1,0.4,2.2,0.5,2.7c0,0.1,0,0.1-0.1,0.1c-0.3,0-0.9-0.1-1-0.1c-0.1,0-0.7,0-1,0.1c0,0-0.1,0-0.1-0.1c0.1-0.5,0.6-2.6,0.6-2.6
	c0-0.1,0-0.2,0-0.2c-0.1-0.2-2.2-0.4-2.5-0.4c-0.1,0-0.2,0-0.3,0.1c-0.2,0.3,0.2,0.6,0.4,0.7c0.1,0.6,0.4,1,1.1,1.1c0,0,0,0,0,0
	c0,0.1-0.2,1.7-0.2,1.7c0,0.6,0.8,1,1.3,1.3c0,0,0.1,0.1,0.1,0.1c-0.2,0.4-0.6,0.7-1.1,0.7c-0.6,0-1.1-0.5-1.1-1.1
	c0-0.4-0.8-2.2-1-2.7c-0.6-1.1,0.3-4.2,1.8-4.5c0.3-0.1,0.5-0.5,0.2-0.8c-0.6-0.6-1.3-1.4-2.2-1.4c-1.1,0-2.1,0.9-2.1,2.1
	c0,1.3,1,1.5,0.9,1.9c-0.4,1.2-0.4,2.5,0.1,3.4c0.4,0.6,0.7,1.7,0.9,2.4c0.1,0.8,0.6,1.4,1.2,1.8c0.3,0.2,0.2,0.4,0.3,0.7
	c0.1,0.1,0.2,0.2,0.2,0.3c0.1,0.1,0,0.1-0.1,0.1c-1-0.1-2.4-0.5-3-1.8c-0.3-0.7-1.4,1.7-2,0.6c-0.7-1.2-1-2.2-1.2-3.4
	c-0.2-0.7-0.6,0.5-0.8,0.1c-0.3-0.8-0.5-1.6-0.5-2.5C28.4,14.4,30.6,11.9,33.7,11.2L33.7,11.2z M42.2,13.3c0,0,0-0.1,0-0.2
	c0.1-0.1,0.3-0.2,0.5-0.2c0.5,0,0.9,0.4,0.9,0.9c0,0.3-0.1,0.5-0.3,0.7c-0.1,0.1-0.2,0-0.2-0.1C42.9,14,42.6,13.6,42.2,13.3z
	 M40.1,23.6c-0.2,0.6-1,0.4-1.5,0.7c0,0-0.2,0-0.2,0c-0.4-0.4-1.2-0.2-1.5-0.8c0,0,0-0.2,0.1-0.2c0.6-0.1,1.1-0.3,1.5-0.8
	c0,0,0.1-0.1,0.2,0c0.3,0.4,0.8,0.6,1.3,0.7C40.1,23.4,40.2,23.5,40.1,23.6z M34,14.6c0,0-0.1,0.1-0.2,0c-0.2-0.2-0.3-0.4-0.3-0.7
	c0-0.5,0.4-0.9,0.9-0.9c0.2,0,0.5,0.1,0.6,0.3c0.1,0.1,0,0.2,0,0.2C34.6,13.7,34.2,14.1,34,14.6z M25.8,26.4c-0.6,0-0.9,0.2-1.3,0.5
	c-0.3,0.2-0.4-0.4,0-1.5c0.3-0.9-1.5-1.4-1.9-1c-0.6,0.5-2.1,1.4-3.6-0.2c-0.3-0.3,0.7-0.2,0.7-0.5c0.1-0.4,0.5-0.6,0.6-0.8
	c0.1-0.1,0.1-0.3-0.1-0.4c-0.5-0.2-1.1-0.8-0.9-1.8c0-0.1-0.8-0.2-0.5-0.4c1.4-1.3,2.9-0.5,3.5-0.1c0.1,0,0.3,0.1,0.3-0.1
	c0-0.4-0.2-0.7,0.7-1.4c0.2-0.1-0.5-0.7,0-0.7c2.9,0.7,1.6,3.7,2.2,4.3c1.1,1,3.8,1.8,6.3,2.3c0.2,0,1,0.3,1.2,0.4
	c2,1,3.3,0.9,4.4,0.5c0.4-0.1,0.3,0.3,0.2,0.4c-4,3.8-7.1,2.9-8.2,2.2c-0.8-0.5-2.3-0.5-3,0.5c-0.1,0.1-0.3,0.2-0.4-0.1
	c-0.2-0.7,0-1.2,0.2-1.8C26.3,26.5,26,26.4,25.8,26.4z M64.3,30c-0.5,0.5-1.5,1-3,0.9c-0.6,0-1,0.2-1.1,0.3
	c-0.1,0.1-0.2,0.3-0.2,0.3c-0.1,0.3,0,0.7,0.2,0.9c0.2,0.2,0.1,0.4-0.2,0.4c-0.3,0.1-0.6,0.1-1.2-0.2c-0.3-0.1-0.4,0-0.4,0.2
	c-0.1,0.3,0.1,0.7,0.5,1c0.2,0.2,0.2,0.4-0.2,0.5c-0.6,0.2-1.1-0.1-1.9-0.5c-0.5-0.3-0.9-0.3-1.2,0.1c-0.2,0.2-0.2,0.4-0.1,0.5
	c0.3,0.3,0.5,1-0.3,2c-0.3,0.3-0.6-0.6-0.8-0.5c-1.1,0.5-2-0.2-2.4-0.6c-0.1-0.1-0.2-0.1-0.4,0c-0.6,0.4-1.8,1-2.2-0.1
	c-0.1-0.2-0.7,0.2-0.7-0.1c0-1.8,1.6-2.1,2.2-2.2c0.2,0,0.2-0.1,0.1-0.3c-0.3-0.4-0.6-0.9-0.4-1.4c0.1-0.4-0.9-0.5-0.5-0.7
	c2.1-1,3.2,0.9,3.6,1.1c0.6,0.3,3.3-0.5,3.6-2c0.1-0.3-0.6-0.4-1.3-0.6c-0.1,0-0.2-0.2,0-0.4c1.6-1.2,2.9-2.8,5.9-3.1
	c0.4,0,0.5,0.3,0.5,0.4c0.1,0.5,0.2,0.9,0.4,1.3c0.4,0.9,0.9,1.5,1.5,1.9C64.5,29.5,64.4,29.8,64.3,30z M76.6,29
	c0.3,0.1,0.3,0.3,0.1,0.5c-0.2,0.2-0.5,0.3-1.2,0.3c-0.3,0-0.3,0.2-0.3,0.3c0,0.3,0.4,0.6,0.9,0.6c0.3,0.1,0.3,0.3,0.1,0.5
	c-0.4,0.4-1,0.4-2,0.4c-0.9,0-1.6,1.1-1.1,1.5c0.4,0.3,1.1,1,0.5,2.9c-0.2,0.6-0.5-0.5-0.8-0.3c-0.8,0.5-1.4-0.1-1.8-0.5
	c-0.1-0.2-0.3-0.2-0.4,0c-0.3,0.5-1.1,1.5-2.7,0.6c-0.3-0.2-1.1,0.5-1.1,0.2c-0.3-1.3,0.4-2,0.9-2.4c0.1,0,0.3-0.3-0.1-0.3
	c-0.5,0-1.2-0.2-1.3-0.9c0-0.1-0.7-0.1-0.7-0.3c0.2-0.9,2.2-1.6,3.6-0.7c1.2,0.8,2.7-1.9,1.6-3.1c-0.8-0.9-5.3,1.6-6.8-1.6
	c-0.6-1.3,0.2-2.4-0.5-2.5c-0.6-0.1-3.5-0.7-6.6,1.8c-5.3,4.3-11.1,1.9-12.5,1c-0.2-0.1-0.4,0.1-0.3,0.3c0.2,0.6,0.1,1.1-0.1,1.5
	c-0.6,0.8-2.5,1.7-2.8,1.8c-2.2,0.7-2,2.4-1.8,3.1c0.1,0.2,0,0.4-0.3,0.3c-0.7-0.1-2.1-0.5-2.6-1.9c-0.1-0.2-0.2-0.2-0.4,0
	c-0.8,0.6-0.5,1.5-0.3,1.8c0.1,0.2,0,0.3-0.2,0.3c-0.8,0.1-1.3-0.8-2-0.7c-0.4,0-0.9,0.4-1.2,0.6c-0.1,0.1-0.2,0.3-0.1,0.5
	c0.8,2.5-0.5,2.6-0.6,2.5c-0.1-0.1,0-0.5-0.4-0.5c-1.3,0.1-1.7-0.8-1.8-1.5c0-0.2-0.1-0.3-0.3-0.2c-0.5,0.4-1.8,1.1-2.6,0
	c-0.1-0.1-0.5,0-0.7,0.1c-0.2,0.1-0.2-0.2-0.2-0.3c0.1-1.4,1.1-2.1,1.6-2.3c0.2-0.1,0.2-0.2,0.1-0.3c-0.4-0.3-1.2-1-0.9-1.7
	c0-0.1-0.6-0.4-0.5-0.5c1.6-1.1,3.5,0.7,3.8,0.9c0.3,0.2,1.7,0.3,5.3-1.8c2.3-1.3,3.5-2.3,4.1-3.1c0.1-0.1,0.2-0.3,0.5-0.3
	c1.4,0,2.9-0.3,4-1.2c0.2-0.2,0.4-0.1,0.5,0c2.1,1.4,3.1-1.7,3.5-3.2c0.1-0.3,0.1-0.5,0.4-0.6c7.6,0.4,21.9,0.3,21.9,0.3
	s1.9,0.1,1.8-1c-0.2-1.9-8-1.8-13.8-1c-2.1,0.3-5.2,0.5-7-0.2c-0.8-0.3-1.4-0.8-1.7-1.4c-0.4-0.8-0.3-1.2-0.2-1.7
	c0.1-0.4,0.3-0.7,0.5-1.1c1.5-2.3,5-2.5,6-2.5c0.2,0,0.3-0.1,0.4-0.2c0.1-0.5,0.5-1.8,2-1.8c0.4,0,0.8-0.2,1.1-0.3
	c0.2-0.1,0.3,0,0.2,0.1c0,0.2-0.1,0.4-0.3,0.6c-1,0.9-0.9,1.3-0.7,1.4c0.1,0.1,0.2,0,0.2,0c3.1-2.7,4.9-0.9,5.4-0.3
	c0.1,0.1,0.1,0.3-0.1,0.3c-2.1,0.5-2.9,2.3-7.2,2c-0.5,0-4-0.2-5.1,1.4c-0.6,0.9-0.2,1.8,1.7,2.2c1.4,0.3,4.8-0.2,6.4-0.3
	c1.5-0.1,8.3-1,11.8,0c1.5,0.4,3.7,1.6,3.2,3.9c-0.3,1.4-1.7,2-1.7,2s-3.9,2.7,3.1,2.8c2.2,0,0,1.8-0.1,2.3
	C75.9,28.5,76.3,28.8,76.6,29z M63.9,13.9c-0.2,0-0.5,0.1-0.8,0.3c-0.6,0.4-3.1,1.5-3.9,0.2c0,0,1.8-0.1,2.9-1.1c0,0,1.2-0.4,2,0.2
	C64,13.7,64.1,13.9,63.9,13.9z M47.3,0C23.6,0,0,6.3,0,6.3v31.5c0,28.4,20.3,57.9,47.2,63c27.9-5.5,47.3-34.6,47.3-63V6.3
	C94.5,6.3,74.8,0,47.3,0L47.3,0z M87.5,49.3c0,23.1-17.6,44.1-40.2,44.1h0C24.6,93.4,7,72.4,7,49.3V9.5l0.6-0.2C7.6,9.3,28,3,47.2,3
	c19.2,0,39.6,6.3,39.6,6.3l0.6,0.2V49.3z"/>
</svg>
